<svg id="Layer_1" data-name="Layer 1" xmlns="http://www.w3.org/2000/svg" xmlns:xlink="http://www.w3.org/1999/xlink" viewBox="0 0 48 48"><defs><style>.cls-1{fill:#fff;}.cls-1,.cls-5{fill-rule:evenodd;}.cls-2{fill:none;stroke:#fff;stroke-width:4px;}.cls-3{fill:#e8faf1;}.cls-4{mask:url(#mask);}.cls-5{fill:#17c671;}</style><mask id="mask" x="13.75" y="16" width="21" height="15" maskUnits="userSpaceOnUse"><g id="mask-2"><polygon id="path-1" class="cls-1" points="13.75 16 34.75 16 34.75 31 13.75 31 13.75 16"/></g></mask></defs><title>Artboard 1</title><g id="Time-Icon"><circle class="cls-2" cx="24" cy="24" r="22"/><circle id="path-1-2" data-name="path-1" class="cls-3" cx="24" cy="24" r="20"/></g><g id="Symbols"><g id="Group-3"><g class="cls-4"><path id="Fill-1" class="cls-5" d="M30.81,17a1.89,1.89,0,0,0-1.29.56c-2.94,2.9-5.2,5.33-7.89,8.05l-2.74-2.28a1.9,1.9,0,0,0-2.66.14,1.84,1.84,0,0,0,.14,2.62l.09.07,4.08,3.4a1.9,1.9,0,0,0,2.55-.11c3.38-3.34,5.79-6,9.09-9.27a1.82,1.82,0,0,0,0-2.62,1.92,1.92,0,0,0-1.4-.56"/></g></g></g></svg>